<?xml version="1.0" encoding="UTF-8" standalone="no"?>
<svg
   xmlns:dc="http://purl.org/dc/elements/1.1/"
   xmlns:cc="http://creativecommons.org/ns#"
   xmlns:rdf="http://www.w3.org/1999/02/22-rdf-syntax-ns#"
   xmlns:svg="http://www.w3.org/2000/svg"
   xmlns="http://www.w3.org/2000/svg"
   viewBox="0 0 1333.3333 1066.6667"
   height="1066.6667"
   width="1333.3333"
   xml:space="preserve"
   id="svg2"
   version="1.1"><metadata
     id="metadata8"><rdf:RDF><cc:Work
         rdf:about=""><dc:format>image/svg+xml</dc:format><dc:type
           rdf:resource="http://purl.org/dc/dcmitype/StillImage" /></cc:Work></rdf:RDF></metadata><defs
     id="defs6"><clipPath
       id="clipPath20"
       clipPathUnits="userSpaceOnUse"><path
         id="path18"
         d="m 6049.64,3189.93 c -107.44,-702.52 -851.29,-884.35 -851.29,-884.35 1264.54,669.46 471.11,1967.05 471.11,1967.05 0,0 487.62,-380.19 380.18,-1082.7 z m 287.52,599.66 h 0.68 C 6204.77,4309.93 5000,5611.46 5000,5611.46 c 0,0 -1204.78,-1301.53 -1337.84,-1821.87 h 0.68 c -53.32,-149.25 -82.44,-310.01 -82.44,-477.58 0,-784.02 635.58,-1419.59 1419.6,-1419.59 784.02,0 1419.59,635.57 1419.59,1419.59 0,167.57 -29.12,328.33 -82.43,477.58 z" /></clipPath><linearGradient
       id="linearGradient26"
       spreadMethod="pad"
       gradientTransform="matrix(2e-7,3784.66,3784.66,-2e-7,5000,1396.44)"
       gradientUnits="userSpaceOnUse"
       y2="0"
       x2="1"
       y1="0"
       x1="0"><stop
         id="stop22"
         offset="0"
         style="stop-opacity:1;stop-color:#50aae3" /><stop
         id="stop24"
         offset="1"
         style="stop-opacity:1;stop-color:#2d3c92" /></linearGradient></defs><g
     transform="matrix(1.3333333,0,0,-1.3333333,0,1066.6667)"
     id="g10"><g
       transform="scale(0.1)"
       id="g12"><g
         id="g14"><g
           clip-path="url(#clipPath20)"
           id="g16"><path
             id="path28"
             style="fill:url(#linearGradient26);fill-opacity:1;fill-rule:nonzero;stroke:none"
             d="m 6049.64,3189.93 c -107.44,-702.52 -851.29,-884.35 -851.29,-884.35 1264.54,669.46 471.11,1967.05 471.11,1967.05 0,0 487.62,-380.19 380.18,-1082.7 z m 287.52,599.66 h 0.68 C 6204.77,4309.93 5000,5611.46 5000,5611.46 c 0,0 -1204.78,-1301.53 -1337.84,-1821.87 h 0.68 c -53.32,-149.25 -82.44,-310.01 -82.44,-477.58 0,-784.02 635.58,-1419.59 1419.6,-1419.59 784.02,0 1419.59,635.57 1419.59,1419.59 0,167.57 -29.12,328.33 -82.43,477.58" /></g></g></g></g></svg>