<?xml version="1.0" encoding="iso-8859-1"?>
<!-- Generator: Adobe Illustrator 19.0.0, SVG Export Plug-In . SVG Version: 6.00 Build 0)  -->
<svg version="1.1" id="Layer_1" xmlns="http://www.w3.org/2000/svg" xmlns:xlink="http://www.w3.org/1999/xlink" x="0px" y="0px"
	 viewBox="0 0 512 512" style="enable-background:new 0 0 512 512;" xml:space="preserve">
<path style="fill:#92E5EA;" d="M225.473,219.255l-9.351-6.07c-0.919-0.597-22.698-14.755-38.573-27.033
	c-35.664-27.584-76.6-64.737-76.6-107.545C100.949,35.263,136.212,0,179.556,0c16.601,0,32.648,5.274,45.917,14.824
	C238.742,5.274,254.789,0,271.39,0c43.344,0,78.607,35.263,78.607,78.607c0,42.809-40.936,79.961-76.6,107.545
	c-15.876,12.278-37.653,26.436-38.574,27.033L225.473,219.255z"/>
<polygon style="fill:#79BBBC;" points="237.392,156.899 209.335,114.729 199.848,125.153 82.826,125.153 82.826,90.802 
	184.663,90.802 213.553,59.056 241.61,101.226 251.098,90.802 368.118,90.802 368.118,125.153 266.282,125.153 "/>
<path style="fill:#E79C25;" d="M163.563,351.996c-12.286-14.04-25.744-35.33-20.078-57.021c2.655-10.17,10.534-23.965,32.984-31.93
	c22.449-7.964,37.26-2.22,45.732,4.001c18.07,13.27,21.041,38.279,20.352,56.924L163.563,351.996z"/>
<path style="fill:#F0C838;" d="M490.155,469.462c-0.026-2.283-0.644-31.751-13.798-52.71
	c-12.307-19.611-37.958-42.988-90.265-42.988c-45.822,0-75.306-21.281-101.319-40.057c-19.43-14.025-37.783-27.271-59.248-27.441
	c-0.212-0.001-0.42-0.002-0.63-0.002c-18.17,0-28.059,6.26-36.021,11.3c-7.556,4.784-13.524,8.563-30.806,8.563
	c-14.164,0-24.492-5.537-35.427-11.401c-15.583-8.355-34.975-18.754-62.117-7.983c-42.702,16.944-40.778,88.231-39.744,126.529
	c0.117,4.309,0.216,8.03,0.216,10.802l-0.204,25.388H490.155z"/>
<g>
	<path style="fill:#ECECED;" d="M68.9,373.432c-16.492-7.679-32.294-12.031-44.034-14.47c-2.356,11.123-3.538,22.886-4.075,34.272
		c9.529,2.15,21.868,5.769,34.534,11.772c21.339,10.114,37.441,23.881,48.171,41.121l39.268,1.676
		C129.456,415.357,104.327,389.926,68.9,373.432z"/>
	<path style="fill:#ECECED;" d="M323.716,358.676c-10.731-5.432-20.407-11.804-29.511-18.219l-36.26,43.818l26.464,21.9
		L323.716,358.676z"/>
	<path style="fill:#ECECED;" d="M261.233,317.758l-36.328,43.903l26.464,21.9l38.323-46.312c-1.656-1.186-3.294-2.369-4.919-3.543
		C276.842,327.982,269.091,322.388,261.233,317.758z"/>
</g>
<path style="fill:#E79C25;" d="M479.708,512H32.29c-10.778,0-19.516-8.738-19.516-19.516v-30.679
	c0-11.059,9.179-19.907,20.23-19.503l447.418,16.775c10.494,0.384,18.803,9.002,18.803,19.503v13.904
	C499.224,503.262,490.487,512,479.708,512z"/>
<g>
</g>
<g>
</g>
<g>
</g>
<g>
</g>
<g>
</g>
<g>
</g>
<g>
</g>
<g>
</g>
<g>
</g>
<g>
</g>
<g>
</g>
<g>
</g>
<g>
</g>
<g>
</g>
<g>
</g>
</svg>
