<?xml version="1.0" encoding="iso-8859-1"?>
<!-- Generator: Adobe Illustrator 19.0.0, SVG Export Plug-In . SVG Version: 6.00 Build 0)  -->
<svg version="1.1" id="Layer_1" xmlns="http://www.w3.org/2000/svg" xmlns:xlink="http://www.w3.org/1999/xlink" x="0px" y="0px"
	 viewBox="0 0 512.002 512.002" style="enable-background:new 0 0 512.002 512.002;" xml:space="preserve">
<g>
	<g>
		<path d="M483.139,441.569c-0.971-7.908-3.926-22.098-12.937-36.458c-11.963-19.063-36.897-41.787-87.743-41.787
			c-44.542,0-73.203-20.687-98.489-38.938c-13.824-9.978-27.088-19.544-41.386-24.024c-1.363-15.065-6.286-31.12-19.437-40.776
			c-8.237-6.047-22.633-11.63-44.455-3.889c-21.821,7.743-29.48,21.152-32.062,31.038c-2.603,9.966-1.05,19.844,2.57,28.935
			c-8.298-1.95-15.423-5.762-22.832-9.735c-15.147-8.122-33.998-18.231-60.382-7.76c-41.509,16.471-39.639,85.767-38.634,122.995
			c0.068,2.504,0.129,4.799,0.168,6.821c-5.148,6.151-7.951,13.822-7.951,21.968v27.716c0,18.928,15.399,34.327,34.327,34.327
			h404.207c18.928,0,34.327-15.399,34.327-34.327v-12.562C492.43,455.986,488.913,447.711,483.139,441.569z M178.936,295.171
			c1.074-4.11,7.995-6.969,10.921-8.007c2.925-1.039,10.101-3.18,13.525-0.667c2.147,1.576,4.432,5.905,5.547,13.406
			c-7.79,2.214-13.351,5.732-18.18,8.79c-1.942,1.229-3.777,2.389-5.734,3.432C179.532,304.032,178.162,298.135,178.936,295.171z
			 M62.772,362.478c2.887-18.625,8.402-30.441,15.529-33.269c11.479-4.553,18.194-1.406,32.286,6.151
			c12.502,6.704,28.061,15.046,50.217,15.046c26.48,0,38.805-7.804,47.806-13.501c6.173-3.908,9.278-5.872,17.504-5.805
			c4.018,0.031,8.476,1.518,13.314,3.955l-13.655,16.502l25.726,21.288l15.915-19.233c1.43,1.03,2.887,2.074,4.375,3.131
			l-13.899,16.796l25.726,21.288l16.5-19.939c21.71,12,48.436,21.825,82.342,21.825c27.977,0,47.755,8.442,58.782,25.095
			c1.885,2.847,3.375,5.729,4.553,8.49l-304.243-11.406c-22.093-35.479-58.475-48.41-79.261-53.035
			C62.441,364.722,62.598,363.595,62.772,362.478z M95.798,417.177l-35.183-1.319c-0.122-4.88-0.229-10.337-0.224-16.117
			C70.486,402.498,83.81,407.653,95.798,417.177z M459.039,477.673c0,0.516-0.42,0.936-0.936,0.936H53.895
			c-0.516,0-0.936-0.42-0.936-0.936v-27.716c0-0.109,0-0.397,0.286-0.673c0.248-0.239,0.498-0.264,0.621-0.264
			c0.019,0,0.036,0.001,0.048,0.001l404.223,15.155c0.505,0.019,0.902,0.43,0.902,0.935V477.673z"/>
	</g>
</g>
<g>
	<g>
		<path d="M346.301,88.265c0.697-3.899,1.073-7.85,1.073-11.854C347.371,34.278,313.093,0,270.96,0
			c-16.137,0-31.736,5.127-44.634,14.409C213.428,5.127,197.828,0,181.691,0c-42.133,0-76.412,34.278-76.412,76.412
			c0,4.004,0.376,7.955,1.073,11.854H87.665v33.391h32.662c14.742,22.704,38.045,42.769,59.413,59.295
			c15.431,11.935,36.601,25.698,37.495,26.278l9.09,5.9l9.09-5.9c0.894-0.58,22.064-14.343,37.496-26.278
			c21.368-16.528,44.67-36.591,59.414-59.295h32.662V88.265H346.301z M252.482,154.539c-8.321,6.436-18.796,13.677-26.157,18.643
			c-7.355-4.962-17.823-12.198-26.155-18.643c-7.759-6.002-23.603-18.258-37.266-32.883h38.514l9.222-10.133l27.273,40.992
			l28.083-30.859h23.752C276.085,136.281,260.241,148.538,252.482,154.539z M311.89,88.265h-60.656l-9.222,10.133l-27.273-40.992
			l-28.083,30.859H140.76c-1.338-3.996-2.089-7.967-2.089-11.854c0-23.721,19.299-43.02,43.02-43.02
			c12.267,0,23.987,5.27,32.157,14.46l12.477,14.034l12.477-14.033c8.17-9.19,19.89-14.461,32.157-14.461
			c23.721,0,43.02,19.299,43.02,43.02C313.98,80.298,313.229,84.27,311.89,88.265z"/>
	</g>
</g>
<g>
</g>
<g>
</g>
<g>
</g>
<g>
</g>
<g>
</g>
<g>
</g>
<g>
</g>
<g>
</g>
<g>
</g>
<g>
</g>
<g>
</g>
<g>
</g>
<g>
</g>
<g>
</g>
<g>
</g>
</svg>
